<?xml version="1.0" standalone="no"?>
<svg
  width="600"
  height="600"
  viewBox="0 0 600 600"
  xmlns="http://www.w3.org/2000/svg"
>
  <g transform="translate(300,300)">
    <path d="M153.1,-207.9C189.4,-184.3,203.6,-127.5,214.8,-74.2C226,-20.9,234.3,28.9,223.2,75.4C212,121.8,181.5,164.9,141.1,184.1C100.7,203.3,50.4,198.6,2.7,194.9C-44.9,191.1,-89.7,188.2,-121.4,166.1C-153.1,144.1,-171.7,103,-180.5,61.9C-189.3,20.9,-188.3,-20,-184.9,-69.3C-181.5,-118.5,-175.7,-176.2,-144.5,-201.3C-113.2,-226.5,-56.6,-219.3,0.9,-220.5C58.4,-221.7,116.8,-231.4,153.1,-207.9Z" fill="#004875" />
  </g>
</svg>
  